<?xml version="1.0" encoding="iso-8859-1"?>
<!-- Generator: Adobe Illustrator 19.0.0, SVG Export Plug-In . SVG Version: 6.00 Build 0)  -->
<svg version="1.1" id="Layer_1" xmlns="http://www.w3.org/2000/svg" xmlns:xlink="http://www.w3.org/1999/xlink" x="0px" y="0px"
	 viewBox="0 0 512 512" style="enable-background:new 0 0 512 512;" xml:space="preserve">
<g>
	<g>
		<path d="M311.257,403.215c-0.983-3.026-3.476-5.315-6.575-6.036l-26.731-6.225l-14.181-23.497
			c-1.642-2.723-4.591-4.388-7.772-4.388s-6.128,1.664-7.772,4.388l-14.181,23.497l-26.731,6.225
			c-3.099,0.721-5.592,3.012-6.575,6.036c-0.984,3.025-0.311,6.344,1.771,8.748l17.966,20.747l-2.34,27.345
			c-0.271,3.169,1.135,6.249,3.709,8.119c1.576,1.145,3.448,1.733,5.337,1.733c1.193,0,2.395-0.236,3.529-0.715l25.285-10.676
			l25.284,10.676c2.929,1.237,6.293,0.851,8.866-1.018c2.573-1.869,3.98-4.949,3.709-8.118l-2.34-27.345l17.967-20.747
			C311.568,409.559,312.241,406.241,311.257,403.215z M275.286,423.723c-1.604,1.852-2.392,4.275-2.182,6.717l1.383,16.176
			l-14.956-6.315c-1.129-0.477-2.33-0.715-3.531-0.715s-2.401,0.238-3.531,0.715l-14.957,6.315l1.385-16.176
			c0.209-2.443-0.579-4.865-2.182-6.717l-10.627-12.273l15.811-3.682c2.387-0.556,4.447-2.053,5.713-4.152l8.389-13.9l8.389,13.9
			c1.266,2.098,3.326,3.595,5.713,4.152l15.811,3.682L275.286,423.723z"/>
	</g>
</g>
<g>
	<g>
		<path d="M456.706,0H55.293c-5.015,0-9.078,4.065-9.078,9.078V419.73c0,5.013,4.063,9.078,9.078,9.078s9.078-4.065,9.078-9.078
			V18.156h383.258v475.688H64.371V448.78c0-5.013-4.063-9.078-9.078-9.078s-9.078,4.065-9.078,9.078v54.142
			c0,5.013,4.063,9.078,9.078,9.078h401.414c5.015,0,9.078-4.065,9.078-9.078V9.078C465.784,4.065,461.721,0,456.706,0z"/>
	</g>
</g>
<g>
	<g>
		<path d="M198.595,138.981c6.809-11.378,10.953-24.842,10.953-36.582c0-27.978-22.763-50.74-50.74-50.74
			c-27.986,0-50.753,22.762-50.753,50.74c0,11.742,4.146,25.209,10.955,36.587c-14.075,9.301-22.973,25.27-22.973,42.561v35.029
			c0,5.013,4.063,9.078,9.078,9.078h107.375c5.015,0,9.078-4.065,9.078-9.078v-35.029
			C221.567,164.245,212.669,148.277,198.595,138.981z M158.808,69.815c17.967,0,32.584,14.617,32.584,32.584
			c0,10.92-5.291,24.621-13.166,34.091c-0.001,0.001-0.002,0.002-0.004,0.004c-3.522,4.241-10.73,11.356-19.415,11.356
			c-8.695,0-15.906-7.115-19.432-11.36c-7.875-9.47-13.166-23.171-13.166-34.091C126.21,84.432,140.834,69.815,158.808,69.815z
			 M203.411,207.498h-89.219v-25.951c0-11.661,6.299-22.373,16.12-28.21c8.594,8.208,18.514,12.668,28.495,12.668
			c9.976,0,19.894-4.462,28.487-12.671c9.819,5.831,16.117,16.543,16.117,28.212V207.498z"/>
	</g>
</g>
<g>
	<g>
		<path d="M403.665,91.912H266.329c-5.015,0-9.078,4.065-9.078,9.078s4.063,9.078,9.078,9.078h137.336
			c5.015,0,9.078-4.065,9.078-9.078S408.68,91.912,403.665,91.912z"/>
	</g>
</g>
<g>
	<g>
		<path d="M403.665,149.555h-16.938c-5.015,0-9.078,4.065-9.078,9.078s4.063,9.078,9.078,9.078h16.938
			c5.015,0,9.078-4.065,9.078-9.078S408.68,149.555,403.665,149.555z"/>
	</g>
</g>
<g>
	<g>
		<path d="M360.098,149.555h-93.769c-5.015,0-9.078,4.065-9.078,9.078s4.065,9.078,9.078,9.078h93.769
			c5.015,0,9.078-4.065,9.078-9.078S365.112,149.555,360.098,149.555z"/>
	</g>
</g>
<g>
	<g>
		<path d="M403.665,207.197H266.329c-5.015,0-9.078,4.065-9.078,9.078s4.065,9.078,9.078,9.078h137.336
			c5.015,0,9.078-4.065,9.078-9.078S408.68,207.197,403.665,207.197z"/>
	</g>
</g>
<g>
	<g>
		<path d="M403.665,264.84H178.537c-5.015,0-9.078,4.065-9.078,9.078c0,5.013,4.063,9.078,9.078,9.078h225.128
			c5.015,0,9.078-4.065,9.078-9.078C412.743,268.904,408.68,264.84,403.665,264.84z"/>
	</g>
</g>
<g>
	<g>
		<path d="M150.698,264.84h-42.364c-5.015,0-9.078,4.065-9.078,9.078c0,5.013,4.063,9.078,9.078,9.078h42.364
			c5.015,0,9.078-4.065,9.078-9.078C159.776,268.904,155.713,264.84,150.698,264.84z"/>
	</g>
</g>
<g>
	<g>
		<path d="M403.665,322.481H108.334c-5.015,0-9.078,4.065-9.078,9.078s4.063,9.078,9.078,9.078h295.331
			c5.015,0,9.078-4.065,9.078-9.078S408.68,322.481,403.665,322.481z"/>
	</g>
</g>
<g>
</g>
<g>
</g>
<g>
</g>
<g>
</g>
<g>
</g>
<g>
</g>
<g>
</g>
<g>
</g>
<g>
</g>
<g>
</g>
<g>
</g>
<g>
</g>
<g>
</g>
<g>
</g>
<g>
</g>
</svg>
