<svg height="511pt" viewBox="-12 0 511 511.98804" width="511pt" xmlns="http://www.w3.org/2000/svg"><path d="m365.609375 162.121094c0-66.410156-53.835937-120.242188-120.246094-120.242188-66.40625 0-120.242187 53.832032-120.242187 120.242188s53.835937 120.242187 120.242187 120.242187c66.378907-.074219 120.167969-53.863281 120.246094-120.242187zm-223.421875 0c0-56.984375 46.195312-103.175782 103.175781-103.175782 56.984375 0 103.179688 46.191407 103.179688 103.175782s-46.195313 103.175781-103.179688 103.175781c-56.964843-.042969-103.132812-46.210937-103.175781-103.175781zm0 0"/><path d="m251.664062 231.488281 55.832032-24.8125c5.597656-2.5 9.203125-8.054687 9.199218-14.183593v-65.28125c-.015624-1.015626-.21875-2.023438-.597656-2.96875-.105468-.269532-.230468-.53125-.367187-.785157-.324219-.664062-.734375-1.277343-1.226563-1.828125-.164062-.207031-.335937-.40625-.523437-.59375-.6875-.65625-1.480469-1.191406-2.34375-1.582031l-.136719-.058594-59.820312-26.640625c-4.011719-1.792968-8.597657-1.792968-12.613282 0l-59.808594 26.589844-.164062.109375c-.867188.402344-1.660156.949219-2.34375 1.613281-.199219.179688-.34375.394532-.523438.589844-.484374.554688-.898437 1.167969-1.226562 1.828125-.140625.253906-.261719.519531-.367188.792969-.375.9375-.578124 1.9375-.597656 2.953125v65.277343c0 6.132813 3.609375 11.6875 9.207032 14.183594l55.84375 24.816406c4.011718 1.796876 8.597656 1.796876 12.609374 0zm2.234376-19.625v-51.183593l45.730468-20.335938v51.140625zm-8.535157-103.238281 41.816407 18.585938-41.816407 18.585937-41.8125-18.585937zm-54.269531 31.71875 45.738281 20.335938v51.148437l-45.765625-20.34375zm0 0"/><path d="m43.484375 355.09375-40.875 110.933594c-3.867187 10.46875-2.371094 22.164062 4 31.324218 6.375 9.160157 16.824219 14.625 27.980469 14.636719h419.671875c11.433593.011719 22.117187-5.703125 28.453125-15.226562 6.335937-9.519531 7.480468-21.582031 3.050781-32.125l-39.015625-92.5-7.761719-18.417969c-5.285156-12.675781-17.671875-20.933594-31.40625-20.929688h-84.4375l18.46875-36.957031c1.824219-3.484375 4.339844-6.550781 7.398438-9.023437 52.457031-43.609375 72.007812-115.390625 48.90625-179.578125-23.101563-64.1875-83.910157-107.050781-152.128907-107.230469s-129.25 42.363281-152.691406 106.429688c-23.4375 64.066406-4.265625 135.949218 47.964844 179.835937 3.476562 2.824219 6.34375 6.328125 8.421875 10.296875l18.097656 36.226562h-92.117187c-14.273438.015626-27.035156 8.914063-31.980469 22.304688zm16.023437 5.855469c2.476563-6.671875 8.84375-11.097657 15.957032-11.09375h14.960937l-19.628906 54.117187c-1.230469 3.382813-4.449219 5.628906-8.046875 5.617188h-21.160156zm165.972657 57.171875c12.75 5.175781 27.019531 5.175781 39.765625 0h182.359375l7.203125 17.066406h-292.121094c-10.183594-.003906-19.402344 6.027344-23.476562 15.359375l-19.285157 44.375h-21.949219l26.796876-61.441406c4.070312-9.332031 13.289062-15.363281 23.472656-15.359375zm243.03125 69.121094c-3.125 4.824218-8.5 7.722656-14.25 7.679687h-315.734375l16.359375-37.546875c1.355469-3.113281 4.429687-5.121094 7.824219-5.121094h299.308593l8.011719 19.011719c2.242188 5.238281 1.671875 11.257813-1.519531 15.976563zm-45.226563-126.933594 2.773438 6.578125h-23.339844c-3.667969-.023438-6.921875-2.367188-8.113281-5.835938l-3.714844-11.195312h16.691406c6.871094 0 13.058594 4.140625 15.6875 10.488281zm-50.363281-10.453125 5.511719 16.664062c3.527344 10.417969 13.289062 17.441407 24.285156 17.46875h30.515625l7.195313 17.066407h-152.636719c2.152343-2.738282 4.039062-5.675782 5.632812-8.773438l21.195313-42.425781zm-220.878906-76.65625c-46.738281-39.261719-63.898438-103.582031-42.925781-160.910157 20.96875-57.328124 75.582031-95.394531 136.621093-95.230468 61.042969.164062 115.453125 38.519531 136.117188 95.957031 20.664062 57.4375 3.164062 121.664063-43.785157 160.679687-4.882812 3.964844-8.882812 8.90625-11.75 14.507813l-48.1875 96.425781c-3.75 7.558594-10 13.589844-17.6875 17.066406-.136718.050782-.25.109376-.378906.171876-9.390625 4.09375-20.0625 4.09375-29.457031 0-.125-.0625-.238281-.121094-.375-.171876-7.6875-3.480468-13.9375-9.507812-17.6875-17.066406l-47.789063-95.738281c-3.121093-6.042969-7.449218-11.382813-12.714843-15.691406zm45.226562 119.089843c1.605469 3.097657 3.503907 6.03125 5.667969 8.765626h-54.691406c-16.96875-.003907-32.328125 10.046874-39.117188 25.601562l-29.78125 68.265625h-44.757812c-5.574219-.015625-10.792969-2.75-13.976563-7.332031-3.179687-4.582032-3.921875-10.425782-1.988281-15.65625l16.683594-45.277344h27.441406c10.761719-.023438 20.367188-6.757812 24.058594-16.863281l21.765625-59.9375h67.535156zm0 0"/></svg>